<svg xmlns="http://www.w3.org/2000/svg" width="151" height="46" viewBox="0 0 151 46" fill="none"><path d="M7.00476 41.3473C6.91071 41.4413 6.81665 41.4727 6.69123 41.4727H3.08563C3.14834 41.9116 3.36781 42.2565 3.68134 42.5387C4.02622 42.8209 4.40246 42.9463 4.90411 42.9463C5.09223 42.9463 5.28035 42.9149 5.49982 42.8522C5.71929 42.7895 5.87605 42.6955 6.00147 42.6014C6.09553 42.5387 6.18959 42.5073 6.315 42.5073C6.44041 42.5073 6.53447 42.5387 6.59718 42.6014C6.72259 42.6955 6.75394 42.7895 6.75394 42.9149C6.75394 43.0403 6.69123 43.1344 6.59718 43.1971C6.3777 43.3539 6.12688 43.5106 5.782 43.6047C5.46846 43.6988 5.15493 43.7615 4.87276 43.7615C4.33975 43.7615 3.90081 43.636 3.49322 43.4166C3.08563 43.1971 2.7721 42.8836 2.52127 42.476C2.3018 42.0684 2.17639 41.6294 2.17639 41.1278C2.17639 40.6261 2.27045 40.1559 2.48992 39.7796C2.70939 39.372 3.02292 39.0585 3.39916 38.839C3.7754 38.6196 4.21434 38.4941 4.71599 38.4941C5.18629 38.4941 5.62523 38.5882 5.97011 38.8077C6.315 39.0271 6.59718 39.3093 6.78529 39.7169C6.97341 40.0931 7.06747 40.5321 7.06747 41.0337C7.13018 41.1905 7.06747 41.2846 7.00476 41.3473ZM3.64999 39.7169C3.36781 39.9677 3.17969 40.3126 3.11698 40.7202H6.28364C6.22094 40.3126 6.06417 39.9677 5.81335 39.7169C5.56252 39.4661 5.21764 39.3407 4.81005 39.3407C4.3084 39.3407 3.93216 39.4661 3.64999 39.7169Z" fill="white"></path><path d="M12.1153 43.3224C12.1153 43.4478 12.084 43.5419 11.9899 43.6046C11.8958 43.6673 11.8018 43.73 11.6764 43.73C11.5196 43.73 11.4255 43.6673 11.3315 43.5732L9.82654 41.7861L8.3843 43.5732C8.29024 43.6673 8.16482 43.73 8.03941 43.73C7.914 43.73 7.81994 43.6987 7.72588 43.6046C7.66318 43.5419 7.63182 43.4478 7.63182 43.3224C7.63182 43.197 7.66318 43.0716 7.75723 42.9775L9.23083 41.1277L7.66317 39.2779C7.56911 39.1525 7.50641 39.0584 7.50641 38.933C7.50641 38.8389 7.53776 38.7449 7.60047 38.6508C7.66318 38.5567 7.78859 38.5254 7.914 38.5254C8.07077 38.5254 8.19618 38.5881 8.25888 38.6822L9.82654 40.532L11.2061 38.6822C11.3001 38.5881 11.3942 38.5254 11.551 38.5254C11.6764 38.5254 11.7704 38.5567 11.8645 38.6508C11.9272 38.7449 11.9585 38.8389 11.9585 38.933C11.9585 39.0584 11.9272 39.1838 11.8331 39.3092L10.3909 41.1591L11.8958 42.9462C12.084 43.1029 12.1153 43.197 12.1153 43.3224Z" fill="white"></path><path d="M17.2572 38.8702C17.6648 39.0896 17.9783 39.4032 18.1978 39.8108C18.4173 40.2184 18.5427 40.6573 18.5427 41.1589C18.5427 41.6606 18.4486 42.0995 18.2292 42.5071C18.0097 42.9147 17.7275 43.2283 17.3513 43.4477C16.975 43.6672 16.5674 43.7926 16.1285 43.7926C15.7523 43.7926 15.4074 43.7299 15.0938 43.5731C14.7803 43.4164 14.4981 43.1969 14.2787 42.9461V45.517C14.2787 45.6738 14.2473 45.7678 14.1533 45.8619C14.0592 45.956 13.9338 45.9873 13.8084 45.9873C13.683 45.9873 13.5575 45.956 13.4635 45.8619C13.3694 45.7678 13.3381 45.6424 13.3381 45.517V41.1903C13.3381 40.6886 13.4635 40.2497 13.683 39.8421C13.9024 39.4345 14.216 39.121 14.6235 38.9015C15.0311 38.6821 15.4701 38.5566 15.9404 38.5566C16.4107 38.5566 16.8496 38.6193 17.2572 38.8702ZM16.7869 42.6952C17.0377 42.5385 17.2572 42.319 17.3826 42.0682C17.5394 41.786 17.6021 41.5038 17.6021 41.1589C17.6021 40.8141 17.5394 40.5319 17.3826 40.2497C17.2259 39.9675 17.0377 39.7794 16.7869 39.6226C16.5361 39.4659 16.2539 39.4032 15.9404 39.4032C15.6268 39.4032 15.3447 39.4659 15.0938 39.6226C14.843 39.7794 14.6235 39.9989 14.4981 40.2497C14.3414 40.5319 14.2787 40.8141 14.2787 41.1589C14.2787 41.5038 14.3414 41.786 14.4981 42.0682C14.6549 42.3504 14.843 42.5385 15.0938 42.6952C15.3447 42.852 15.6268 42.9147 15.9404 42.9147C16.2539 42.9147 16.5361 42.852 16.7869 42.6952Z" fill="white"></path><path d="M24.4998 41.3473C24.4057 41.4413 24.3116 41.4727 24.1862 41.4727H20.5806C20.6433 41.9116 20.8628 42.2565 21.1763 42.5387C21.5212 42.8209 21.8975 42.9463 22.3991 42.9463C22.5872 42.9463 22.7753 42.9149 22.9948 42.8522C23.2143 42.7895 23.371 42.6955 23.4965 42.6014C23.5905 42.5387 23.6846 42.5073 23.81 42.5073C23.9354 42.5073 24.0295 42.5387 24.0922 42.6014C24.2176 42.6955 24.2489 42.7895 24.2489 42.9149C24.2489 43.0403 24.1862 43.1344 24.0922 43.1971C23.8727 43.3539 23.6219 43.5106 23.277 43.6047C22.9635 43.6988 22.6499 43.7615 22.3678 43.7615C21.8347 43.7615 21.3958 43.636 20.9882 43.4166C20.5806 43.1971 20.2671 42.8836 20.0163 42.476C19.7968 42.0684 19.6714 41.6294 19.6714 41.1278C19.6714 40.6261 19.7654 40.1559 19.9849 39.7796C20.2044 39.372 20.5179 39.0585 20.8942 38.839C21.2704 38.6196 21.7093 38.4941 22.211 38.4941C22.6813 38.4941 23.1202 38.5882 23.4651 38.8077C23.81 39.0271 24.0922 39.3093 24.2803 39.7169C24.4684 40.0931 24.5625 40.5321 24.5625 41.0337C24.6252 41.1905 24.5938 41.2846 24.4998 41.3473ZM21.145 39.7169C20.8628 39.9677 20.6747 40.3126 20.612 40.7202H23.7786C23.7159 40.3126 23.5592 39.9677 23.3083 39.7169C23.0575 39.4661 22.7126 39.3407 22.305 39.3407C21.8034 39.3407 21.4272 39.4661 21.145 39.7169Z" fill="white"></path><path d="M29.1714 38.6509C29.3595 38.745 29.4536 38.8704 29.4536 39.0271C29.4536 39.0585 29.4536 39.0898 29.4536 39.1212C29.3909 39.3093 29.2654 39.4347 29.0773 39.4347C29.046 39.4347 28.9833 39.4347 28.9206 39.4034C28.6697 39.372 28.4503 39.3407 28.2935 39.3407C27.8546 39.3407 27.4783 39.4347 27.1961 39.6542C26.914 39.8737 26.7886 40.1559 26.7886 40.5007V43.2598C26.7886 43.4166 26.7572 43.542 26.6631 43.6047C26.5691 43.6988 26.475 43.7301 26.3183 43.7301C26.1615 43.7301 26.0361 43.6988 25.9734 43.6047C25.8793 43.5106 25.848 43.4166 25.848 43.2598V39.0271C25.848 38.8704 25.8793 38.745 25.9734 38.6823C26.0674 38.5882 26.1615 38.5568 26.3183 38.5568C26.6318 38.5568 26.7886 38.7136 26.7886 39.0271V39.2153C26.9767 38.9958 27.1961 38.8077 27.4783 38.6823C27.7605 38.5568 28.0427 38.4941 28.3562 38.4941C28.7324 38.4941 28.9833 38.5568 29.1714 38.6509Z" fill="white"></path><path d="M31.4915 36.6437C31.617 36.7691 31.6797 36.9259 31.6797 37.0826C31.6797 37.2394 31.617 37.3962 31.4915 37.5216C31.3661 37.647 31.2094 37.7097 31.0526 37.7097C30.8958 37.7097 30.7391 37.647 30.6137 37.5216C30.4882 37.3962 30.4255 37.2394 30.4255 37.0826C30.4255 36.9259 30.4882 36.7691 30.6137 36.6437C30.7391 36.5183 30.8958 36.4556 31.0526 36.4556C31.2094 36.4556 31.3661 36.5183 31.4915 36.6437ZM30.7077 38.6816C30.8018 38.5876 30.9272 38.5562 31.0526 38.5562C31.2094 38.5562 31.3034 38.5876 31.3975 38.6816C31.4915 38.7757 31.5229 38.9011 31.5229 39.0265V43.2592C31.5229 43.3846 31.4915 43.51 31.3975 43.6041C31.3034 43.6981 31.178 43.7295 31.0526 43.7295C30.9272 43.7295 30.8018 43.6981 30.7077 43.6041C30.6137 43.51 30.5823 43.3846 30.5823 43.2592V39.0579C30.5509 38.9011 30.6137 38.7757 30.7077 38.6816Z" fill="white"></path><path d="M37.8562 41.3473C37.7621 41.4413 37.6681 41.4727 37.5427 41.4727H33.9371C33.9998 41.9116 34.2192 42.2565 34.5328 42.5387C34.8777 42.8209 35.2539 42.9463 35.7555 42.9463C35.9437 42.9463 36.1318 42.9149 36.3513 42.8522C36.5707 42.7895 36.7275 42.6955 36.8529 42.6014C36.947 42.5387 37.041 42.5073 37.1664 42.5073C37.2918 42.5073 37.3859 42.5387 37.4486 42.6014C37.574 42.6955 37.6054 42.7895 37.6054 42.9149C37.6054 43.0403 37.5427 43.1344 37.4486 43.1971C37.2291 43.3539 36.9783 43.5106 36.6334 43.6047C36.3199 43.6988 36.0064 43.7615 35.7242 43.7615C35.1912 43.7615 34.7523 43.636 34.3447 43.4166C33.9371 43.1971 33.6235 42.8836 33.3727 42.476C33.1532 42.0684 33.0278 41.6294 33.0278 41.1278C33.0278 40.6261 33.1219 40.1559 33.3414 39.7796C33.5608 39.372 33.8744 39.0585 34.2506 38.839C34.6268 38.6196 35.0658 38.4941 35.5674 38.4941C36.0377 38.4941 36.4767 38.5882 36.8216 38.8077C37.1664 39.0271 37.4486 39.3093 37.6367 39.7169C37.8249 40.0931 37.9189 40.5321 37.9189 41.0337C37.9816 41.1905 37.9189 41.2846 37.8562 41.3473ZM34.5014 39.7169C34.2192 39.9677 34.0311 40.3126 33.9684 40.7202H37.1351C37.0724 40.3126 36.9156 39.9677 36.6648 39.7169C36.414 39.4661 36.0691 39.3407 35.6615 39.3407C35.1598 39.3407 34.7836 39.4661 34.5014 39.7169Z" fill="white"></path><path d="M42.9354 38.7764C43.2803 38.9645 43.5624 39.2467 43.7506 39.5916C43.9387 39.9678 44.0327 40.4068 44.0327 40.9084V43.2286C44.0327 43.354 44.0014 43.4794 43.9073 43.5734C43.8133 43.6675 43.6879 43.6989 43.5624 43.6989C43.437 43.6989 43.3116 43.6675 43.2176 43.5734C43.1235 43.4794 43.0921 43.354 43.0921 43.2286V40.9084C43.0921 40.4068 42.9667 39.9992 42.6846 39.7484C42.4024 39.4975 42.0575 39.3408 41.5872 39.3408C41.3364 39.3408 41.0856 39.4035 40.8661 39.4975C40.6466 39.5916 40.4898 39.7484 40.3644 39.9365C40.239 40.1246 40.1763 40.3127 40.1763 40.5635V43.2286C40.1763 43.354 40.145 43.4794 40.0509 43.5734C39.9568 43.6675 39.8314 43.6989 39.706 43.6989C39.5806 43.6989 39.4552 43.6675 39.3611 43.5734C39.2671 43.4794 39.2357 43.354 39.2357 43.2286V38.9959C39.2357 38.8391 39.2671 38.7451 39.3611 38.651C39.4552 38.557 39.5806 38.5256 39.706 38.5256C39.8628 38.5256 39.9568 38.557 40.0509 38.651C40.145 38.7451 40.1763 38.8705 40.1763 38.9959V39.09C40.3644 38.9018 40.6153 38.7451 40.8974 38.6197C41.1796 38.4942 41.4618 38.4629 41.7753 38.4629C42.2143 38.4942 42.5905 38.5883 42.9354 38.7764Z" fill="white"></path><path d="M48.14 42.9144C48.2341 43.0085 48.2654 43.1025 48.2654 43.2593C48.2654 43.3847 48.2027 43.5101 48.1087 43.6042C48.0146 43.6983 47.8578 43.7296 47.7011 43.7296H47.5443C47.2308 43.7296 46.9486 43.6355 46.6978 43.4788C46.4469 43.322 46.2275 43.1025 46.1021 42.8204C45.9453 42.5382 45.8826 42.2247 45.8826 41.8798V39.5283H45.4436C45.3182 39.5283 45.1928 39.4969 45.1301 39.4029C45.0361 39.3402 45.0047 39.2461 45.0047 39.1207C45.0047 38.9953 45.0361 38.9012 45.1301 38.8072C45.2242 38.7445 45.3182 38.6818 45.4436 38.6818H45.8826V37.3336C45.8826 37.2082 45.9139 37.0828 46.008 36.9887C46.1021 36.8946 46.1961 36.8633 46.3529 36.8633C46.4783 36.8633 46.6037 36.8946 46.6978 36.9887C46.7918 37.0828 46.8232 37.1768 46.8232 37.3336V38.6818H47.6384C47.7638 38.6818 47.8892 38.7131 47.9519 38.8072C48.0459 38.8699 48.0773 38.9953 48.0773 39.1207C48.0773 39.2461 48.0459 39.3402 47.9519 39.4029C47.8578 39.4656 47.7638 39.5283 47.6384 39.5283H46.8232V41.8798C46.8232 42.1306 46.8859 42.3501 47.0426 42.5068C47.1681 42.6636 47.3562 42.7577 47.5443 42.7577H47.8578C47.9832 42.789 48.0773 42.8204 48.14 42.9144Z" fill="white"></path><path d="M50.4602 36.6437C50.5856 36.7691 50.6483 36.9259 50.6483 37.0826C50.6483 37.2394 50.5856 37.3962 50.4602 37.5216C50.3348 37.647 50.178 37.7097 50.0212 37.7097C49.8645 37.7097 49.7077 37.647 49.5823 37.5216C49.4569 37.3962 49.3942 37.2394 49.3942 37.0826C49.3942 36.9259 49.4569 36.7691 49.5823 36.6437C49.7077 36.5183 49.8645 36.4556 50.0212 36.4556C50.178 36.4556 50.3348 36.5183 50.4602 36.6437ZM49.6763 38.6816C49.7704 38.5876 49.8958 38.5562 50.0212 38.5562C50.178 38.5562 50.272 38.5876 50.3661 38.6816C50.4602 38.7757 50.4915 38.9011 50.4915 39.0265V43.2592C50.4915 43.3846 50.4602 43.51 50.3661 43.6041C50.272 43.6981 50.1466 43.7295 50.0212 43.7295C49.8958 43.7295 49.7704 43.6981 49.6763 43.6041C49.5823 43.51 49.5509 43.3846 49.5509 43.2592V39.0579C49.5509 38.9011 49.5823 38.7757 49.6763 38.6816Z" fill="white"></path><path d="M55.9783 38.8704C56.3859 39.0898 56.6994 39.4034 56.9189 39.811C57.1383 40.2186 57.2638 40.6575 57.2638 41.1592V43.2598C57.2638 43.3852 57.2324 43.5106 57.1383 43.6047C57.0443 43.6988 56.9189 43.7301 56.7935 43.7301C56.668 43.7301 56.5426 43.6988 56.4486 43.6047C56.3545 43.5106 56.3232 43.3852 56.3232 43.2598V42.9149C56.1037 43.1971 55.8215 43.3852 55.508 43.542C55.1945 43.6987 54.8496 43.7615 54.4733 43.7615C54.0344 43.7615 53.5954 43.636 53.2506 43.4166C52.8743 43.1971 52.5921 42.8836 52.3727 42.476C52.1532 42.0684 52.0591 41.6294 52.0591 41.1278C52.0591 40.6261 52.1846 40.1872 52.404 39.7796C52.6235 39.372 52.937 39.0585 53.3446 38.839C53.7522 38.6196 54.1912 38.4941 54.6614 38.4941C55.1317 38.4941 55.5707 38.6196 55.9783 38.8704ZM55.508 42.6955C55.7588 42.5387 55.9783 42.3192 56.1037 42.0684C56.2605 41.7862 56.3232 41.504 56.3232 41.1592C56.3232 40.8143 56.2605 40.5321 56.1037 40.2499C55.9469 39.9677 55.7588 39.7796 55.508 39.6228C55.2572 39.4661 54.975 39.4034 54.6614 39.4034C54.3479 39.4034 54.0657 39.4661 53.8149 39.6228C53.5641 39.7796 53.3446 39.9991 53.2192 40.2499C53.0624 40.5321 52.9997 40.8143 52.9997 41.1592C52.9997 41.504 53.0624 41.7862 53.2192 42.0684C53.376 42.3506 53.5641 42.5387 53.8149 42.6955C54.0657 42.8522 54.3479 42.9149 54.6614 42.9149C54.975 42.9149 55.2572 42.8522 55.508 42.6955Z" fill="white"></path><path d="M58.6432 36.456C58.7373 36.3619 58.8314 36.3306 58.9881 36.3306C59.1449 36.3306 59.2389 36.3619 59.333 36.456C59.4271 36.55 59.4584 36.6441 59.4584 36.8009V41.9741C59.4584 42.1936 59.4898 42.4131 59.5838 42.5385C59.6779 42.6952 59.7719 42.7579 59.9287 42.7579H60.1795C60.3049 42.7579 60.399 42.7893 60.4931 42.8834C60.5871 42.9774 60.6185 43.0715 60.6185 43.2282C60.6185 43.3537 60.5558 43.4791 60.4304 43.5731C60.3049 43.6672 60.1482 43.6985 59.9601 43.6985H59.9287C59.6465 43.6985 59.4271 43.6358 59.2076 43.4791C58.9881 43.3223 58.8314 43.1342 58.7059 42.852C58.5805 42.5698 58.5178 42.2877 58.5178 41.9428V36.7695C58.5178 36.6755 58.5492 36.55 58.6432 36.456Z" fill="white"></path><path d="M67.6417 38.6509C67.8298 38.745 67.9238 38.8704 67.9238 39.0271C67.9238 39.0585 67.9238 39.0898 67.9238 39.1212C67.8611 39.3093 67.7357 39.4347 67.5476 39.4347C67.5163 39.4347 67.4536 39.4347 67.3908 39.4034C67.14 39.372 66.9205 39.3407 66.7638 39.3407C66.3248 39.3407 65.9486 39.4347 65.6664 39.6542C65.3842 39.8737 65.2588 40.1559 65.2588 40.5007V43.2598C65.2588 43.4166 65.2275 43.542 65.1334 43.6047C65.0394 43.6988 64.9453 43.7301 64.7885 43.7301C64.6318 43.7301 64.5064 43.6988 64.4437 43.6047C64.3496 43.5106 64.3182 43.4166 64.3182 43.2598V39.0271C64.3182 38.8704 64.3496 38.745 64.4437 38.6823C64.5377 38.5882 64.6318 38.5568 64.7885 38.5568C65.1021 38.5568 65.2588 38.7136 65.2588 39.0271V39.2153C65.4469 38.9958 65.6664 38.8077 65.9486 38.6823C66.2308 38.5568 66.513 38.4941 66.8265 38.4941C67.1714 38.4941 67.4535 38.5568 67.6417 38.6509Z" fill="white"></path><path d="M72.2191 38.839C72.6267 39.0585 72.9089 39.372 73.1597 39.7796C73.3792 40.1872 73.5046 40.6261 73.5046 41.1278C73.5046 41.6294 73.3792 42.0684 73.1597 42.476C72.9402 42.8836 72.6267 43.1971 72.2505 43.4166C71.8429 43.636 71.4039 43.7615 70.9023 43.7615C70.4006 43.7615 69.9617 43.636 69.5541 43.4166C69.1465 43.1971 68.833 42.8836 68.6135 42.476C68.394 42.0684 68.2686 41.6294 68.2686 41.1278C68.2686 40.6261 68.394 40.1559 68.6135 39.7796C68.833 39.372 69.1465 39.0585 69.5541 38.839C69.9617 38.6196 70.4006 38.4941 70.9023 38.4941C71.3726 38.5255 71.8115 38.6196 72.2191 38.839ZM70.0244 39.5915C69.7736 39.7483 69.5541 39.9677 69.4287 40.2186C69.2719 40.5007 69.2092 40.7829 69.2092 41.1278C69.2092 41.4727 69.2719 41.7862 69.4287 42.037C69.5854 42.3192 69.7736 42.5073 70.0244 42.6641C70.2752 42.8209 70.5574 42.8836 70.9023 42.8836C71.2472 42.8836 71.498 42.8209 71.7802 42.6641C72.031 42.5073 72.2191 42.2879 72.3759 42.037C72.5326 41.7549 72.5953 41.4727 72.5953 41.1278C72.5953 40.7829 72.5326 40.4694 72.3759 40.2186C72.2191 39.9364 72.031 39.7483 71.7802 39.5915C71.5293 39.4347 71.2472 39.372 70.9023 39.372C70.5574 39.372 70.2752 39.4347 70.0244 39.5915Z" fill="white"></path><path d="M75.3858 36.3306C75.5112 36.3306 75.6366 36.3619 75.7307 36.456C75.8248 36.55 75.8561 36.6755 75.8561 36.8009V39.3405C76.0756 39.0583 76.3578 38.8702 76.6713 38.7134C76.9848 38.5566 77.3297 38.4939 77.7059 38.4939C78.1449 38.4939 78.5838 38.6193 78.9287 38.8388C79.305 39.0583 79.5871 39.3718 79.8066 39.7794C80.0261 40.187 80.1201 40.6259 80.1201 41.1276C80.1201 41.6292 79.9947 42.0682 79.7753 42.4758C79.5558 42.8834 79.2423 43.1969 78.8347 43.4164C78.4271 43.6358 77.9881 43.7612 77.5178 43.7612C77.0475 43.7612 76.5772 43.6358 76.201 43.4164C75.7934 43.1969 75.4799 42.8834 75.2604 42.4758C75.0409 42.0682 74.9155 41.6292 74.9155 41.1276V36.8009C74.9155 36.6441 74.9469 36.55 75.0409 36.456C75.135 36.3933 75.2604 36.3306 75.3858 36.3306ZM77.5178 42.9147C77.8314 42.9147 78.1135 42.852 78.3644 42.6952C78.6152 42.5385 78.8347 42.319 78.9601 42.0682C79.1168 41.786 79.1795 41.5038 79.1795 41.1589C79.1795 40.8141 79.1168 40.5319 78.9601 40.2497C78.8033 39.9675 78.6152 39.7794 78.3644 39.6226C78.1135 39.4659 77.8314 39.4032 77.5178 39.4032C77.2043 39.4032 76.9221 39.4659 76.6713 39.6226C76.4205 39.7794 76.201 39.9989 76.0756 40.2497C75.9188 40.5319 75.8561 40.8141 75.8561 41.1589C75.8561 41.5038 75.9188 41.786 76.0756 42.0682C76.2324 42.3504 76.4205 42.5385 76.6713 42.6952C76.9221 42.852 77.2043 42.9147 77.5178 42.9147Z" fill="white"></path><path d="M85.262 38.839C85.6696 39.0585 85.9518 39.372 86.2026 39.7796C86.4221 40.1872 86.5475 40.6261 86.5475 41.1278C86.5475 41.6294 86.4221 42.0684 86.2026 42.476C85.9831 42.8836 85.6696 43.1971 85.2934 43.4166C84.8858 43.636 84.4468 43.7615 83.9452 43.7615C83.4435 43.7615 83.0046 43.636 82.597 43.4166C82.1894 43.1971 81.8759 42.8836 81.6564 42.476C81.4369 42.0684 81.3115 41.6294 81.3115 41.1278C81.3115 40.6261 81.4369 40.1559 81.6564 39.7796C81.8759 39.372 82.1894 39.0585 82.597 38.839C83.0046 38.6196 83.4435 38.4941 83.9452 38.4941C84.4155 38.5255 84.8544 38.6196 85.262 38.839ZM83.0673 39.5915C82.8165 39.7483 82.597 39.9677 82.4716 40.2186C82.3148 40.5007 82.2521 40.7829 82.2521 41.1278C82.2521 41.4727 82.3148 41.7862 82.4716 42.037C82.6283 42.3192 82.8165 42.5073 83.0673 42.6641C83.3181 42.8209 83.6003 42.8836 83.9452 42.8836C84.2901 42.8836 84.5409 42.8209 84.8231 42.6641C85.0739 42.5073 85.262 42.2879 85.4188 42.037C85.5755 41.7549 85.6382 41.4727 85.6382 41.1278C85.6382 40.7829 85.5755 40.4694 85.4188 40.2186C85.262 39.9364 85.0739 39.7483 84.8231 39.5915C84.5722 39.4347 84.2901 39.372 83.9452 39.372C83.6003 39.372 83.3181 39.4347 83.0673 39.5915Z" fill="white"></path><path d="M90.4666 42.9144C90.5607 43.0085 90.592 43.1025 90.592 43.2593C90.592 43.3847 90.5293 43.5101 90.4353 43.6042C90.3412 43.6983 90.1844 43.7296 90.0277 43.7296H89.8709C89.5574 43.7296 89.2752 43.6355 89.0244 43.4788C88.7735 43.322 88.5541 43.1025 88.4287 42.8204C88.2719 42.5382 88.2092 42.2247 88.2092 41.8798V39.5283H87.7702C87.6448 39.5283 87.5194 39.4969 87.4567 39.4029C87.3627 39.3402 87.3313 39.2461 87.3313 39.1207C87.3313 38.9953 87.3627 38.9012 87.4567 38.8072C87.5508 38.7445 87.6448 38.6818 87.7702 38.6818H88.2092V37.3336C88.2092 37.2082 88.2405 37.0828 88.3346 36.9887C88.4287 36.8946 88.5227 36.8633 88.6795 36.8633C88.8049 36.8633 88.9303 36.8946 89.0244 36.9887C89.1184 37.0828 89.1498 37.1768 89.1498 37.3336V38.6818H89.965C90.0904 38.6818 90.2158 38.7131 90.2785 38.8072C90.3726 38.8699 90.4039 38.9953 90.4039 39.1207C90.4039 39.2461 90.3726 39.3402 90.2785 39.4029C90.1844 39.4656 90.0904 39.5283 89.965 39.5283H89.1184V41.8798C89.1184 42.1306 89.1811 42.3501 89.3379 42.5068C89.4633 42.6636 89.6514 42.7577 89.8395 42.7577H90.1531C90.2785 42.789 90.3725 42.8204 90.4666 42.9144Z" fill="white"></path><path d="M92.7868 36.6437C92.9122 36.7691 92.9749 36.9259 92.9749 37.0826C92.9749 37.2394 92.9122 37.3962 92.7868 37.5216C92.6614 37.647 92.5046 37.7097 92.3478 37.7097C92.1911 37.7097 92.0343 37.647 91.9089 37.5216C91.7835 37.3962 91.7208 37.2394 91.7208 37.0826C91.7208 36.9259 91.7835 36.7691 91.9089 36.6437C92.0343 36.5183 92.1911 36.4556 92.3478 36.4556C92.5046 36.4556 92.6614 36.5183 92.7868 36.6437ZM91.9716 38.6816C92.0657 38.5876 92.1911 38.5562 92.3165 38.5562C92.4732 38.5562 92.5673 38.5876 92.6614 38.6816C92.7554 38.7757 92.7868 38.9011 92.7868 39.0265V43.2592C92.7868 43.3846 92.7554 43.51 92.6614 43.6041C92.5673 43.6981 92.4419 43.7295 92.3165 43.7295C92.1911 43.7295 92.0657 43.6981 91.9716 43.6041C91.8775 43.51 91.8462 43.3846 91.8462 43.2592V39.0579C91.8462 38.9011 91.9089 38.7757 91.9716 38.6816Z" fill="white"></path><path d="M98.7752 39.372C98.8379 39.4347 98.8692 39.5288 98.8692 39.6228C98.8692 39.7483 98.8065 39.8737 98.6498 39.9677C98.5871 39.9991 98.5244 40.0304 98.4303 40.0304C98.2735 40.0304 98.1481 39.9677 98.0541 39.8737C97.8973 39.7169 97.7092 39.5915 97.5524 39.4974C97.3643 39.4034 97.1448 39.372 96.9253 39.372C96.4237 39.372 96.0475 39.5288 95.7339 39.8737C95.4204 40.1872 95.295 40.6261 95.295 41.1592C95.295 41.504 95.3577 41.8176 95.5145 42.0684C95.6712 42.3506 95.8593 42.5387 96.1102 42.6955C96.361 42.8522 96.6432 42.9149 96.9881 42.9149C97.427 42.9149 97.7719 42.7895 98.0227 42.57C98.1481 42.476 98.2735 42.4446 98.3676 42.4446C98.4617 42.4446 98.5244 42.476 98.6184 42.5387C98.7438 42.6327 98.8065 42.7582 98.8065 42.8836C98.8065 42.9776 98.7752 43.0717 98.6811 43.1344C98.2422 43.542 97.6465 43.7615 96.9881 43.7615C96.4864 43.7615 96.0475 43.636 95.6399 43.4166C95.2323 43.1971 94.9187 42.8836 94.6993 42.476C94.4798 42.0684 94.3544 41.6294 94.3544 41.1278C94.3544 40.6261 94.4485 40.1559 94.6679 39.7796C94.8874 39.372 95.2009 39.0585 95.5772 38.839C95.9534 38.6196 96.4237 38.4941 96.894 38.4941C97.6465 38.5255 98.2735 38.8077 98.7752 39.372Z" fill="white"></path><path d="M103.227 38.7136C103.541 38.839 103.823 39.0271 104.011 39.278C104.105 39.372 104.137 39.4661 104.137 39.5915C104.137 39.6856 104.074 39.811 103.98 39.8737C103.917 39.9364 103.823 39.9364 103.729 39.9364C103.572 39.9364 103.415 39.8737 103.29 39.7483C103.133 39.5915 102.977 39.4974 102.788 39.4347C102.6 39.372 102.412 39.3407 102.13 39.3407C101.848 39.3407 101.597 39.4034 101.409 39.4974C101.221 39.5915 101.127 39.7169 101.127 39.905C101.127 40.0304 101.158 40.1245 101.221 40.2186C101.283 40.3126 101.409 40.3753 101.566 40.4694C101.754 40.5321 102.005 40.6261 102.318 40.6889C103.008 40.8143 103.478 41.0337 103.792 41.2532C104.074 41.504 104.231 41.8176 104.231 42.1938C104.231 42.476 104.137 42.7582 103.98 42.9776C103.823 43.2285 103.604 43.3852 103.29 43.542C102.977 43.6674 102.632 43.7301 102.193 43.7301C101.754 43.7301 101.346 43.6674 100.97 43.542C100.594 43.4166 100.28 43.2285 100.092 43.009C99.998 42.9149 99.9666 42.8209 99.9666 42.7268C99.9666 42.57 100.029 42.4446 100.155 42.3506C100.28 42.2565 100.374 42.2252 100.5 42.2252C100.625 42.2252 100.75 42.2879 100.844 42.3819C100.97 42.5073 101.158 42.6327 101.378 42.7268C101.628 42.8209 101.879 42.8836 102.13 42.8836C102.475 42.8836 102.757 42.8209 102.977 42.6955C103.165 42.57 103.29 42.4133 103.29 42.2252C103.29 42.037 103.196 41.8803 103.008 41.7235C102.82 41.5981 102.475 41.4727 102.005 41.41C100.782 41.1905 100.186 40.6889 100.186 39.905C100.186 39.5915 100.28 39.3407 100.468 39.1212C100.656 38.9017 100.876 38.745 101.189 38.6509C101.472 38.5568 101.816 38.4941 102.13 38.4941C102.538 38.5255 102.882 38.5882 103.227 38.7136Z" fill="white"></path><path d="M112.132 38.8702C112.539 39.0896 112.853 39.4032 113.072 39.8108C113.292 40.2184 113.417 40.6573 113.417 41.1589C113.417 41.6606 113.323 42.0995 113.104 42.5071C112.884 42.9147 112.602 43.2283 112.226 43.4477C111.849 43.6672 111.442 43.7926 111.003 43.7926C110.627 43.7926 110.282 43.7299 109.968 43.5731C109.655 43.4164 109.373 43.1969 109.153 42.9461V45.517C109.153 45.6738 109.122 45.7678 109.028 45.8619C108.934 45.956 108.808 45.9873 108.683 45.9873C108.557 45.9873 108.432 45.956 108.338 45.8619C108.244 45.7678 108.212 45.6424 108.212 45.517V41.1903C108.212 40.6886 108.338 40.2497 108.557 39.8421C108.777 39.4345 109.09 39.121 109.498 38.9015C109.906 38.6821 110.345 38.5566 110.815 38.5566C111.285 38.5566 111.755 38.6193 112.132 38.8702ZM111.661 42.6952C111.912 42.5385 112.132 42.319 112.257 42.0682C112.414 41.786 112.477 41.5038 112.477 41.1589C112.477 40.8141 112.414 40.5319 112.257 40.2497C112.1 39.9675 111.912 39.7794 111.661 39.6226C111.411 39.4659 111.128 39.4032 110.815 39.4032C110.501 39.4032 110.219 39.4659 109.968 39.6226C109.717 39.7794 109.498 39.9989 109.373 40.2497C109.216 40.5319 109.153 40.8141 109.153 41.1589C109.153 41.5038 109.216 41.786 109.373 42.0682C109.529 42.3504 109.717 42.5385 109.968 42.6952C110.219 42.852 110.501 42.9147 110.815 42.9147C111.128 42.9147 111.411 42.852 111.661 42.6952Z" fill="white"></path><path d="M114.797 36.456C114.891 36.3619 114.985 36.3306 115.142 36.3306C115.267 36.3306 115.392 36.3619 115.486 36.456C115.58 36.55 115.612 36.6441 115.612 36.8009V41.9741C115.612 42.1936 115.643 42.4131 115.737 42.5385C115.831 42.6952 115.925 42.7579 116.082 42.7579H116.333C116.458 42.7579 116.552 42.7893 116.646 42.8834C116.741 42.9774 116.772 43.0715 116.772 43.2282C116.772 43.3537 116.709 43.4791 116.584 43.5731C116.458 43.6672 116.302 43.6985 116.113 43.6985H116.082C115.8 43.6985 115.58 43.6358 115.361 43.4791C115.142 43.3223 114.985 43.1342 114.859 42.852C114.734 42.5698 114.671 42.2877 114.671 41.9428V36.7695C114.671 36.6755 114.734 36.55 114.797 36.456Z" fill="white"></path><path d="M121.099 38.8704C121.506 39.0898 121.82 39.4034 122.039 39.811C122.259 40.2186 122.384 40.6575 122.384 41.1592V43.2598C122.384 43.3852 122.353 43.5106 122.259 43.6047C122.165 43.6988 122.039 43.7301 121.914 43.7301C121.788 43.7301 121.663 43.6988 121.569 43.6047C121.475 43.5106 121.443 43.3852 121.443 43.2598V42.9149C121.224 43.1971 120.942 43.3852 120.628 43.542C120.315 43.6987 119.97 43.7615 119.594 43.7615C119.155 43.7615 118.716 43.636 118.371 43.4166C117.995 43.1971 117.712 42.8836 117.493 42.476C117.274 42.0684 117.179 41.6294 117.179 41.1278C117.179 40.6261 117.305 40.1872 117.524 39.7796C117.744 39.372 118.057 39.0585 118.465 38.839C118.873 38.6196 119.311 38.4941 119.782 38.4941C120.252 38.4941 120.691 38.6196 121.099 38.8704ZM120.628 42.6955C120.879 42.5387 121.099 42.3192 121.224 42.0684C121.381 41.7862 121.443 41.504 121.443 41.1592C121.443 40.8143 121.381 40.5321 121.224 40.2499C121.067 39.9677 120.879 39.7796 120.628 39.6228C120.377 39.4661 120.095 39.4034 119.782 39.4034C119.468 39.4034 119.186 39.4661 118.935 39.6228C118.684 39.7796 118.465 39.9991 118.34 40.2499C118.183 40.5321 118.12 40.8143 118.12 41.1592C118.12 41.504 118.183 41.7862 118.34 42.0684C118.496 42.3506 118.684 42.5387 118.935 42.6955C119.186 42.8522 119.468 42.9149 119.782 42.9149C120.095 42.9149 120.377 42.8522 120.628 42.6955Z" fill="white"></path><path d="M126.303 42.9144C126.397 43.0085 126.429 43.1025 126.429 43.2593C126.429 43.3847 126.366 43.5101 126.272 43.6042C126.178 43.6983 126.021 43.7296 125.864 43.7296H125.708C125.394 43.7296 125.112 43.6355 124.861 43.4788C124.61 43.322 124.391 43.1025 124.265 42.8204C124.109 42.5382 124.046 42.2247 124.046 41.8798V39.5283H123.607C123.481 39.5283 123.356 39.4969 123.293 39.4029C123.199 39.3402 123.168 39.2461 123.168 39.1207C123.168 38.9953 123.199 38.9012 123.293 38.8072C123.387 38.7445 123.481 38.6818 123.607 38.6818H124.046V37.3336C124.046 37.2082 124.077 37.0828 124.171 36.9887C124.265 36.8946 124.359 36.8633 124.516 36.8633C124.642 36.8633 124.767 36.8946 124.861 36.9887C124.955 37.0828 124.986 37.1768 124.986 37.3336V38.6818H125.802C125.927 38.6818 126.052 38.7131 126.115 38.8072C126.209 38.8699 126.241 38.9953 126.241 39.1207C126.241 39.2461 126.209 39.3402 126.115 39.4029C126.021 39.4656 125.927 39.5283 125.802 39.5283H124.986V41.8798C124.986 42.1306 125.049 42.3501 125.206 42.5068C125.331 42.6636 125.519 42.7577 125.708 42.7577H126.021C126.115 42.789 126.241 42.8204 126.303 42.9144Z" fill="white"></path><path d="M129 37.553C128.78 37.7724 128.686 38.086 128.686 38.4935V38.7444H129.658C129.783 38.7444 129.909 38.7757 129.971 38.8698C130.034 38.9638 130.097 39.0579 130.097 39.1833C130.097 39.3087 130.066 39.4028 129.971 39.4655C129.877 39.5282 129.783 39.5909 129.658 39.5909H128.686V43.2592C128.686 43.416 128.655 43.51 128.561 43.6041C128.467 43.6982 128.341 43.7295 128.184 43.7295C128.059 43.7295 127.965 43.6982 127.871 43.6041C127.777 43.51 127.745 43.3846 127.745 43.2592V39.5595H127.338C127.212 39.5595 127.087 39.5282 127.024 39.4341C126.962 39.3401 126.899 39.2774 126.899 39.152C126.899 39.0265 126.93 38.9325 127.024 38.8384C127.118 38.7444 127.212 38.713 127.338 38.713H127.745V38.5562C127.745 38.1173 127.839 37.7097 128.028 37.3648C128.216 37.0199 128.467 36.7691 128.78 36.581C129.094 36.3929 129.47 36.2988 129.877 36.2988C130.003 36.2988 130.128 36.3302 130.222 36.4242C130.316 36.5183 130.348 36.6124 130.348 36.7378C130.348 36.8632 130.316 36.9572 130.222 37.0513C130.128 37.1454 130.003 37.1767 129.877 37.1767C129.501 37.2081 129.188 37.3335 129 37.553Z" fill="white"></path><path d="M134.58 38.839C134.988 39.0585 135.27 39.372 135.521 39.7796C135.74 40.1872 135.866 40.6261 135.866 41.1278C135.866 41.6294 135.74 42.0684 135.521 42.476C135.302 42.8836 134.988 43.1971 134.612 43.4166C134.204 43.636 133.765 43.7615 133.264 43.7615C132.762 43.7615 132.323 43.636 131.915 43.4166C131.508 43.1971 131.194 42.8836 130.975 42.476C130.755 42.0684 130.63 41.6294 130.63 41.1278C130.63 40.6261 130.755 40.1559 130.975 39.7796C131.194 39.372 131.508 39.0585 131.915 38.839C132.323 38.6196 132.762 38.4941 133.264 38.4941C133.734 38.5255 134.173 38.6196 134.58 38.839ZM132.386 39.5915C132.135 39.7483 131.915 39.9677 131.79 40.2186C131.633 40.5007 131.571 40.7829 131.571 41.1278C131.571 41.4727 131.633 41.7862 131.79 42.037C131.947 42.3192 132.135 42.5073 132.386 42.6641C132.637 42.8209 132.919 42.8836 133.264 42.8836C133.577 42.8836 133.859 42.8209 134.141 42.6641C134.392 42.5073 134.58 42.2879 134.737 42.037C134.894 41.7549 134.957 41.4727 134.957 41.1278C134.957 40.7829 134.894 40.4694 134.737 40.2186C134.58 39.9364 134.392 39.7483 134.141 39.5915C133.891 39.4347 133.608 39.372 133.264 39.372C132.919 39.372 132.637 39.4347 132.386 39.5915Z" fill="white"></path><path d="M140.6 38.6509C140.788 38.745 140.882 38.8704 140.882 39.0271C140.882 39.0585 140.882 39.0898 140.882 39.1212C140.82 39.3093 140.694 39.4347 140.506 39.4347C140.475 39.4347 140.412 39.4347 140.349 39.4034C140.099 39.372 139.879 39.3407 139.722 39.3407C139.283 39.3407 138.907 39.4347 138.625 39.6542C138.343 39.8737 138.217 40.1559 138.217 40.5007V43.2598C138.217 43.4166 138.186 43.542 138.092 43.6047C137.998 43.6674 137.904 43.7301 137.747 43.7301C137.59 43.7301 137.465 43.6988 137.402 43.6047C137.308 43.5106 137.277 43.4166 137.277 43.2598V39.0271C137.277 38.8704 137.308 38.745 137.402 38.6823C137.496 38.5882 137.59 38.5568 137.747 38.5568C138.061 38.5568 138.217 38.7136 138.217 39.0271V39.2153C138.405 38.9958 138.625 38.8077 138.907 38.6823C139.189 38.5568 139.471 38.4941 139.785 38.4941C140.161 38.4941 140.412 38.5568 140.6 38.6509Z" fill="white"></path><path d="M148.658 39.058C149.003 39.4029 149.16 39.9045 149.16 40.5629V43.2593C149.16 43.3847 149.128 43.5101 149.034 43.6042C148.94 43.6982 148.815 43.7296 148.689 43.7296C148.564 43.7296 148.438 43.6982 148.344 43.6042C148.25 43.5101 148.219 43.3847 148.219 43.2593V40.5629C148.219 40.1867 148.125 39.8731 147.937 39.685C147.749 39.4969 147.498 39.3715 147.153 39.3715C146.839 39.3715 146.557 39.4969 146.338 39.7164C146.118 39.9359 146.024 40.2494 146.024 40.5943V43.2593C146.024 43.3847 145.993 43.5101 145.899 43.6042C145.805 43.6982 145.679 43.7296 145.554 43.7296C145.429 43.7296 145.303 43.6982 145.209 43.6042C145.115 43.5101 145.084 43.3847 145.084 43.2593V40.5629C145.084 40.1867 144.99 39.8731 144.801 39.685C144.613 39.4969 144.363 39.3715 144.018 39.3715C143.673 39.3715 143.422 39.4969 143.202 39.7164C142.983 39.9359 142.889 40.2494 142.889 40.5943V43.2593C142.889 43.3847 142.858 43.5101 142.764 43.6042C142.669 43.6982 142.544 43.7296 142.419 43.7296C142.293 43.7296 142.168 43.6982 142.074 43.6042C141.98 43.5101 141.948 43.3847 141.948 43.2593V39.058C141.948 38.9012 141.98 38.8071 142.074 38.7131C142.168 38.619 142.293 38.5877 142.419 38.5877C142.544 38.5877 142.669 38.619 142.764 38.7131C142.858 38.8071 142.889 38.9012 142.92 39.058C143.077 38.9012 143.265 38.7758 143.516 38.6817C143.735 38.5877 143.986 38.5563 144.268 38.5563C144.582 38.5563 144.864 38.619 145.146 38.7444C145.397 38.8698 145.617 39.058 145.773 39.3088C145.962 39.0893 146.212 38.9012 146.495 38.7444C146.777 38.619 147.09 38.5563 147.435 38.5563C147.874 38.4936 148.313 38.6817 148.658 39.058Z" fill="white"></path><path d="M87.8644 0.650886C94.8875 0.58818 100.845 6.48256 100.75 13.537C100.75 16.108 100.061 18.4281 98.6812 20.4974C97.333 22.5667 95.5459 24.1343 93.3198 25.169L100.75 34.7317H86.6103L80.1829 26.4231H68.3001V34.7317H55.0063V0.650886H87.8644ZM68.3001 10.6212V16.4215H84.5096C85.3248 16.4215 86.0145 16.1393 86.5789 15.575C87.1746 14.9792 87.4568 14.3208 87.4568 13.5056C87.4568 11.8753 86.1713 10.5898 84.5409 10.5898H68.3001V10.6212Z" fill="white"></path><path d="M137.684 0.682136C144.707 0.61943 150.665 6.51381 150.571 13.5683C150.665 20.5913 144.707 26.5484 137.684 26.4544H118.12V34.7629H104.826V0.682136H137.684ZM134.361 16.4527C135.145 16.4527 135.835 16.1706 136.399 15.6062C136.995 15.0105 137.277 14.3521 137.277 13.5369C137.277 12.7217 136.995 12.032 136.399 11.4676C135.835 10.8719 135.145 10.6211 134.361 10.6211H118.12V16.4214H134.361V16.4527Z" fill="white"></path><path d="M26.9767 10.6211L17.414 0.682129H0.796875L18.6681 17.7382L26.9767 24.7926L36.5394 34.7629H53.1565L35.2853 17.7382L26.9767 10.6211Z" fill="#D1182C"></path><path d="M53.1565 0.682129H36.5394L26.9767 10.6211L35.2853 17.7382L53.1565 0.682129Z" fill="#006EFF"></path><path d="M0.796875 34.763H17.414L26.9767 24.7927L18.6681 17.7383L0.796875 34.763Z" fill="#006EFF"></path></svg>